<mxfile host="app.diagrams.net" modified="2023-10-08T12:03:21.488Z" agent="Mozilla/5.0 (Windows NT 10.0; Win64; x64; rv:109.0) Gecko/20100101 Firefox/118.0" version="22.0.4" etag="3LRv6UpneIMg2hvldDbj" type="github">
  <diagram name="第 1 页" id="p9Z2yuLTIkp748LCLyk-">
    <mxGraphModel>
      <root>
        <mxCell id="0" />
        <mxCell id="1" parent="0" />
      </root>
    </mxGraphModel>
  </diagram>
</mxfile>
